# xmcd
#
# Track frame offsets:
#	150
#	17042
#	35996
#	53501
#	71022
#	88491
#	102118
#	121348
#	139544
#	155594
#	171278
#	185430
#	200782
#	222671
#	238907
#	252611
#	266434
#	279045
#	296722
#	315774
#
# Disc length: 4385 seconds
#
# Revision: 2
# Processed by: cddbd v1.5.2PL0 Copyright (c) Steve Scherf et al.
# Submitted via: EasyCDDAExtractor 10.2.0.1
#
DISCID=33111f14
DTITLE=Various Artist - Now That's What I Call Country Vol. 2
DYEAR=2009
DGENRE=Country
TTITLE0=Keith Urban - Kiss A Girl
TTITLE1=Kenny Chesney - Everybody Wants To Go To Heaven
TTITLE2=Taylor Swift - Love Story
TTITLE3=Rascal Flatts - Here
TTITLE4=Montgomery Gentry - Roll With Me
TTITLE5=Trace Adkins - Marry For Money
TTITLE6=Carrie Underwood - I Told You So
TTITLE7=Alan Jackson - Country Boy
TTITLE8=Josh Turner - Everything Is Fine
TTITLE9=Sugarland - All I Want To Do
TTITLE10=Miranda Lambert - Gunpowder and Lead
TTITLE11=Gary Allan - Learning How To Bend
TTITLE12=Jamey Johnson - In Color
TTITLE13=Darius Rucker - It Won't Be Like This For Long
TTITLE14=Dierks Bentley - Sideways
TTITLE15=Jake Owen - Don't Think I Can't Love You
TTITLE16=Eric Church - Love Your Love The Most
TTITLE17=Billy Currington - Don't
TTITLE18=Lady Antebellum - I Run To You
TTITLE19=George Strait - Troubadour
EXTD=
EXTT0=
EXTT1=
EXTT2=
EXTT3=
EXTT4=
EXTT5=
EXTT6=
EXTT7=
EXTT8=
EXTT9=
EXTT10=
EXTT11=
EXTT12=
EXTT13=
EXTT14=
EXTT15=
EXTT16=
EXTT17=
EXTT18=
EXTT19=
PLAYORDER=
